<svg xmlns="http://www.w3.org/2000/svg" viewBox="0 0 128 128" role="img" aria-label="Wind4Strava wind icon">
  <defs>
    <linearGradient id="w4s_bg" x1="10" y1="12" x2="116" y2="118" gradientUnits="userSpaceOnUse">
      <stop offset="0" stop-color="#fff2eb" />
      <stop offset="1" stop-color="#ffe3d6" />
    </linearGradient>
    <linearGradient id="w4s_orange" x1="24" y1="24" x2="104" y2="96" gradientUnits="userSpaceOnUse">
      <stop offset="0" stop-color="#fd7a3e" />
      <stop offset="1" stop-color="#fc4c02" />
    </linearGradient>
  </defs>

  <rect x="6" y="6" width="116" height="116" rx="28" fill="url(#w4s_bg)" stroke="#f4b89e" stroke-width="3" />

  <path d="M20 48h56c10 0 16-5 16-12 0-6-5-11-12-11-5 0-9 2-11 6"
        fill="none" stroke="url(#w4s_orange)" stroke-width="9" stroke-linecap="round" stroke-linejoin="round"/>

  <path d="M16 73h72c12 0 20 7 20 16s-8 15-18 15c-7 0-13-3-16-9"
        fill="none" stroke="#f0672a" stroke-width="9" stroke-linecap="round" stroke-linejoin="round"/>

  <path d="M47 39l11-6-6-10" fill="none" stroke="#fc4c02" stroke-width="6" stroke-linecap="round" stroke-linejoin="round"/>
  <path d="M58 88l11 6-6 10" fill="none" stroke="#e85a1d" stroke-width="6" stroke-linecap="round" stroke-linejoin="round"/>
</svg>
